# xmcd
#
# Track frame offsets: 
#        150
#        24835
#        47149
#        69915
#        91628
#        113709
#        135660
#        154774
#        173146
#        198721
#        218808
#        236517
#        257583
#        284515
#
# Disc length: 4040 seconds
#
# Revision: 1
# Processed by: cddbd v1.5.2PL0 Copyright (c) Steve Scherf et al.
# Submitted via: ExactAudioCopy v1.0b3
#
DISCID=bb0fc60e
DTITLE=Various Artist - Xin Loi Anh - Best Of Duets
DYEAR=2010
DGENRE=Pop
TTITLE0=Minh Tuyet and Bang Kieu - Xin Loi Anh (Feat Bang Kieu)
TTITLE1=Minh Tuyet and Trinh Lam - Du Am Tinh Ta (Feat Trinh Lam)
TTITLE2=Minh Tuyet and Nguyen Thang - Dung Giau Trong Long (Feat Nguyen 
TTITLE2=Thang)
TTITLE3=Minh Tuyet and The Son - Vi Ngot Doi Moi (Feat The Son)
TTITLE4=Minh Tuyet and Bang Kieu - Gio Thi Anh Da Biet (Feat Bang Kieu)
TTITLE5=Minh Tuyet and Mai Tien Dung - Giua Doi Minh (Feat Mai Tien Dung
TTITLE5=)
TTITLE6=Minh Tuyet and Lam Nhat Tien - Yeu Mai Ngan Nam (Feat Lam Nhat T
TTITLE6=ien)
TTITLE7=Minh Tuyet and Tran Thai Hoa - Nhung Loi Me Hoac (Feat Tran Thai
TTITLE7=Hoa)
TTITLE8=Minh Tuyet and Don Ho - LK Tinh Em Ngon Nen, Tan Tro, Du Tinh Ye
TTITLE8=u Da Mat (Feat Don Ho)
TTITLE9=Minh Tuyet and Quang Le - Bai Ca Ky Niem (Feat Quang Le)
TTITLE10=Minh Tuyet and Duong Trieu Vu - Tron Kiep Binh Yen (Duong Trieu
TTITLE10=Vu)
TTITLE11=Minh Tuyet and Luong Tung Quang - Tinh Du Tram Loi (Feat Luong 
TTITLE11=Tung Quang)
TTITLE12=Minh Tuyet and Nguyen Thang - LK Pho Cu Vang Anh, Sao Phai Cach
TTITLE12=Xa from (Feat Nguyen Thang)
TTITLE13=Minh Tuyet and Bang Kieu - Boi Vi Anh Yeu Em (Feat Bang Kieu)
EXTD=
EXTT0=
EXTT1=
EXTT2=
EXTT3=
EXTT4=
EXTT5=
EXTT6=
EXTT7=
EXTT8=
EXTT9=
EXTT10=
EXTT11=
EXTT12=
EXTT13=
PLAYORDER=
